PathFileType	4	(X/Y/Z)	./resultDataOpenSim/trcMotMarkerGrf/sub06/qtm-04-03.trc
DataRate	CameraRate	NumFrames	NumMarkers	Units	OrigDataRate	OrigDataStartFrame	OrigNumFrames
250.000000	250.000000	13	24	m	250.000000	64	510
Frame#	Time	L.Toe.Tip			R.Toe.Tip			L.Ankle.Lat			R.Ankle.Lat			L.Ankle.Med			R.Ankle.Med			L.Heel			R.Heel			L.Knee.Lat			R.Knee.Lat			L.Knee.Med			R.Knee.Med			L.Thigh.Upper			R.Thigh.Upper			L.ASIS			R.ASIS			V.Sacral			L.Acromium			R.Acromium			C7			L.Elbow			R.Elbow			L.Wrist.Lat			R.Wrist.Lat
		X1	Y1	Z1	X2	Y2	Z2	X3	Y3	Z3	X4	Y4	Z4	X5	Y5	Z5	X6	Y6	Z6	X7	Y7	Z7	X8	Y8	Z8	X9	Y9	Z9	X10	Y10	Z10	X11	Y11	Z11	X12	Y12	Z12	X13	Y13	Z13	X14	Y14	Z14	X15	Y15	Z15	X16	Y16	Z16	X17	Y17	Z17	X18	Y18	Z18	X19	Y19	Z19	X20	Y20	Z20	X21	Y21	Z21	X22	Y22	Z22	X23	Y23	Z23	X24	Y24	Z24

64	0.252	-1.3484603	0.081502636	-0.06393004	-0.80661335	0.035726679	0.12982485	-1.3499797	0.21149702	-0.090939018	-0.94417563	0.060811489	0.14607045	-1.3324349	0.2149567	-0.0094280429	-0.92045758	0.079336917	0.060079213	-1.398946	0.26700748	-0.043532798	-0.99550944	0.038935856	0.082963897	-1.0122561	0.37719204	-0.11328266	-0.8691779	0.44071851	0.17741957	-1.0063012	0.36261541	0.0056527172	-0.90209428	0.42846727	0.053180947	-1.0473616	0.76885609	-0.10962203	-1.0097123	0.79109608	0.23288987	-0.9669162	0.8194718	-0.074916411	-0.93036207	0.8393029	0.16591734	-1.1326316	0.90611586	0.072537419	-1.0138655	1.3108344	-0.12468587	-1.0010496	1.2929856	0.23861391	-1.0831862	1.3447417	0.059680597	-1.0134737	0.98287347	-0.18047755	-1.1084691	0.99530494	0.29895362	-0.80496056	0.85187674	-0.15310126	-1.0036225	0.7830901	0.34567324
65	0.256	-1.3319603	0.081758823	-0.064161026	-0.80670784	0.035741496	0.12992793	-1.3357925	0.21152223	-0.090356268	-0.9442704	0.060855179	0.14610779	-1.3185729	0.21523349	-0.0088672788	-0.92047886	0.079382821	0.060106518	-1.3856657	0.26624093	-0.042631159	-0.99553386	0.03899456	0.082920007	-0.99963191	0.37952696	-0.1131302	-0.86805605	0.44055176	0.17771131	-0.99338767	0.36493282	0.0059558073	-0.90038152	0.42876895	0.05330042	-1.0409931	0.77094323	-0.10910757	-1.0050233	0.79204977	0.23348963	-0.96086564	0.82149394	-0.074487246	-0.92484114	0.84074752	0.16696432	-1.1273352	0.9080936	0.073001001	-1.0083865	1.3126962	-0.12445866	-0.99516086	1.2951029	0.23878406	-1.0774297	1.3465408	0.059887754	-1.0096319	0.98489846	-0.17958601	-1.1004524	0.99665941	0.29969604	-0.80292838	0.85129945	-0.15380266	-0.99256517	0.7857214	0.34622664
66	0.26	-1.3153114	0.081883696	-0.064399019	-0.80679242	0.035756412	0.13001247	-1.3216299	0.2113251	-0.089779076	-0.94436219	0.060894808	0.14614117	-1.3045581	0.21525501	-0.008317893	-0.92050228	0.07943103	0.060126813	-1.3722701	0.26521397	-0.041795281	-0.9955534	0.039059916	0.082872424	-0.98709551	0.38199535	-0.11295456	-0.86677529	0.44042475	0.17794175	-0.98051507	0.36733897	0.0063338379	-0.89877845	0.42908469	0.053416452	-1.0346294	0.77310778	-0.10863141	-1.0000998	0.79314721	0.23403756	-0.95479641	0.82354062	-0.07402405	-0.91904828	0.84223427	0.1680477	-1.1216558	0.91002235	0.073376017	-1.0028925	1.3145898	-0.12423	-0.98923592	1.2972422	0.23893376	-1.0716712	1.3483687	0.060107402	-1.0058692	0.98697135	-0.17868446	-1.0924341	0.99809195	0.30043598	-0.80087994	0.85076639	-0.15451929	-0.98134243	0.78850511	0.34670436
67	0.264	-1.2986534	0.081819659	-0.064449185	-0.80686807	0.035771188	0.13007376	-1.3074819	0.21089359	-0.089185859	-0.94444293	0.060933884	0.14616272	-1.2903497	0.21503671	-0.0077922633	-0.92053134	0.079481886	0.060137091	-1.3587711	0.26390108	-0.041051891	-0.99557113	0.039132217	0.082819782	-0.97465083	0.38458757	-0.11271352	-0.86542887	0.44032897	0.17815023	-0.96783505	0.36987618	0.0068903675	-0.89725394	0.42940399	0.053525393	-1.0282506	0.77531841	-0.1081815	-0.99525696	0.79435195	0.23447028	-0.94867433	0.82562326	-0.073478256	-0.91309945	0.84374528	0.16914572	-1.1157079	0.91189196	0.0735161	-0.99738012	1.3165092	-0.12399546	-0.98327246	1.2994003	0.2390584	-1.06591	1.3502107	0.060339942	-1.0021369	0.9891084	-0.17781735	-1.0844255	0.99956607	0.30130783	-0.79885286	0.85027488	-0.15526986	-0.9699858	0.79143871	0.34710175
68	0.268	-1.2819997	0.081527067	-0.06426947	-0.80693625	0.035784618	0.13011193	-1.2932377	0.21023736	-0.088579073	-0.94449862	0.060978702	0.14616657	-1.275879	0.21458703	-0.0073026717	-0.92056732	0.079535417	0.060135064	-1.3452101	0.26232423	-0.040310111	-0.99559328	0.039205502	0.082767015	-0.96223617	0.38729695	-0.11238711	-0.86405797	0.44026362	0.17835172	-0.95549089	0.3726066	0.0076992931	-0.89583518	0.42970649	0.05363708	-1.0218494	0.77754861	-0.10777263	-0.9906456	0.79558241	0.23481013	-0.94250166	0.82772977	-0.072861616	-0.90743649	0.84523925	0.17019107	-1.1096548	0.91371181	0.073521157	-0.99184461	1.3184419	-0.12375639	-0.9772779	1.3015813	0.23915637	-1.0601458	1.3520457	0.060585542	-0.99846887	0.99133339	-0.17715677	-1.0764327	1.0010682	0.30232519	-0.79688929	0.84982221	-0.15606282	-0.95856847	0.79450191	0.34742852
69	0.272	-1.2651782	0.081033181	-0.064039574	-0.80699822	0.035796502	0.13013266	-1.2787894	0.20938296	-0.087984295	-0.94451977	0.061035534	0.14615041	-1.2611495	0.21391191	-0.0068330071	-0.92060831	0.079591264	0.060119909	-1.3316154	0.26051014	-0.039522837	-0.99562972	0.039262132	0.082728192	-0.94982598	0.39011882	-0.11198621	-0.86266786	0.44023393	0.17853963	-0.94347129	0.37555517	0.0087001811	-0.89459451	0.42996322	0.053757918	-1.0154386	0.77978544	-0.10746226	-0.98616242	0.79678073	0.23515812	-0.9363336	0.82982994	-0.072272566	-0.90245379	0.84668671	0.17111334	-1.1036661	0.91546479	0.073415931	-0.98628742	1.3203748	-0.12351575	-0.97126425	1.3037864	0.2392343	-1.0543783	1.3538616	0.060846077	-0.99493433	0.99365053	-0.17688452	-1.0684517	1.0026074	0.3034205	-0.79499404	0.849411	-0.15689044	-0.94714424	0.7976768	0.34770046
70	0.276	-1.2480048	0.080399236	-0.063952802	-0.80705601	0.03580736	0.13014242	-1.2641195	0.20835274	-0.087410589	-0.94450942	0.061103043	0.14611364	-1.2462569	0.21302723	-0.0063505997	-0.92065236	0.079649843	0.060091251	-1.3179373	0.25842236	-0.038759809	-0.9956914	0.039276831	0.082722263	-0.93747171	0.39304083	-0.11153776	-0.86131489	0.44022767	0.17867798	-0.93152011	0.3786684	0.0096971018	-0.89355486	0.43015605	0.053869514	-1.0090368	0.78202519	-0.10731608	-0.98165833	0.79793809	0.23558444	-0.9302296	0.83190719	-0.071807239	-0.89798539	0.8481023	0.17191865	-1.0979192	0.91710955	0.073083833	-0.98072114	1.3223037	-0.12327476	-0.96523696	1.3060067	0.23929848	-1.0486128	1.3556594	0.061124126	-0.99155111	0.99602697	-0.17698199	-1.0604937	1.0041878	0.30451762	-0.79316131	0.84904325	-0.15775363	-0.93574827	0.80095053	0.34792946
71	0.28	-1.2304284	0.079669388	-0.064046303	-0.80711233	0.035816521	0.13014532	-1.2492809	0.20715677	-0.086847607	-0.944511	0.061154961	0.1460516	-1.2312696	0.21196405	-0.0058463293	-0.92069894	0.079712451	0.060050533	-1.304142	0.25601397	-0.038047547	-0.99577994	0.039241541	0.082754219	-0.92522349	0.39604243	-0.11106074	-0.86014697	0.44020861	0.17870399	-0.919352	0.38186513	0.010530636	-0.89270776	0.43028433	0.053935578	-1.0026433	0.78427123	-0.10733358	-0.97707889	0.79906285	0.23601762	-0.9241989	0.8339738	-0.071456868	-0.89352809	0.84951026	0.17267971	-1.0924909	0.91863485	0.072477048	-0.97516143	1.3242258	-0.1230342	-0.95919494	1.3082273	0.23934862	-1.0428587	1.3574436	0.061418136	-0.98823132	0.99839912	-0.17711914	-1.0526183	1.0057946	0.30554913	-0.79139315	0.84871465	-0.15866289	-0.92440642	0.8043089	0.34811687
72	0.284	-1.2124948	0.078867058	-0.064251239	-0.8071689	0.03582251	0.13014442	-1.2343268	0.20579433	-0.086281199	-0.94463798	0.061126472	0.14594818	-1.2162153	0.21074502	-0.0053195529	-0.92074702	0.079779386	0.060002642	-1.2902732	0.25328672	-0.03729944	-0.99587927	0.039188581	0.082797886	-0.91309003	0.3991088	-0.11055572	-0.85927597	0.44014793	0.17858714	-0.90693551	0.38511798	0.011206858	-0.8920561	0.43036096	0.053929399	-0.99622112	0.78652897	-0.1073808	-0.97235952	0.80016263	0.23630336	-0.91822417	0.83604599	-0.071142782	-0.88887423	0.85090252	0.17344741	-1.0872104	0.92009965	0.071813039	-0.9696135	1.3261324	-0.12279396	-0.95313965	1.3104356	0.23938419	-1.0371193	1.3592103	0.061721268	-0.9848519	1.000716	-0.17691358	-1.0449362	1.007404	0.30645526	-0.78969262	0.84841927	-0.15961927	-0.91311827	0.80774114	0.34825929
73	0.288	-1.1942623	0.078008303	-0.064494604	-0.80722412	0.035825565	0.13014312	-1.2192791	0.2042614	-0.085698234	-0.94499418	0.060963434	0.14579107	-1.2011305	0.20936141	-0.0047495008	-0.92079451	0.079849396	0.059953603	-1.2763722	0.25025569	-0.036445658	-0.99596862	0.039166229	0.082817482	-0.90106325	0.40223785	-0.11001485	-0.85858942	0.44006587	0.17839979	-0.89444633	0.38844958	0.011819474	-0.89151745	0.43042515	0.053862	-0.98971395	0.78879412	-0.10722457	-0.96735934	0.80127347	0.23644188	-0.91230887	0.83812266	-0.070812102	-0.88404011	0.85229231	0.17422477	-1.0817301	0.92157086	0.071385164	-0.96407166	1.3280176	-0.1225523	-0.94707601	1.3126234	0.23940956	-1.0313888	1.360951	0.0620265	-0.98137221	1.0029763	-0.17629437	-1.0375243	1.0090086	0.30723166	-0.7880554	0.84815493	-0.16061254	-0.90185635	0.81124791	0.34835974
74	0.292	-1.1757653	0.077105033	-0.064736866	-0.80727338	0.035827672	0.13014515	-1.2041333	0.20256021	-0.08509759	-0.94550008	0.060720117	0.14560884	-1.185984	0.20780233	-0.004128141	-0.92084089	0.079921844	0.059905302	-1.2624289	0.24692368	-0.035506752	-0.99604518	0.039191756	0.082811207	-0.88913307	0.40542913	-0.10943354	-0.85783546	0.44001131	0.17826588	-0.88207657	0.391877	0.012431359	-0.89098729	0.43051753	0.053778976	-0.98309676	0.79105498	-0.1067333	-0.96201223	0.80243912	0.23661009	-0.90643727	0.84020113	-0.070451826	-0.87881741	0.8537696	0.17500545	-1.0757565	0.92302305	0.071217788	-0.95853029	1.3298776	-0.12230674	-0.94100889	1.314785	0.23943056	-1.0256614	1.3626614	0.062329314	-0.97783404	1.0052071	-0.17545245	-1.0303107	1.0106329	0.30798957	-0.78646806	0.84792278	-0.16163124	-0.89060027	0.81483367	0.34842417
75	0.296	-1.1570045	0.076169991	-0.064970866	-0.80731241	0.035830364	0.13015342	-1.1888744	0.2006946	-0.084485036	-0.94591865	0.060540071	0.14546397	-1.1706579	0.20610305	-0.0035000637	-0.92088917	0.079997614	0.059852436	-1.2484019	0.2433047	-0.034565003	-0.99612523	0.03924922	0.082817264	-0.87729085	0.40867005	-0.10881247	-0.8568961	0.44000068	0.17823475	-0.86996672	0.39538696	0.013055076	-0.89057892	0.43062491	0.053720796	-0.97639762	0.79330615	-0.10608432	-0.95642735	0.80363539	0.23688476	-0.90049093	0.84230005	-0.070033145	-0.8729715	0.85539929	0.17578653	-1.0692507	0.92438356	0.071098646	-0.95299022	1.3317022	-0.12205503	-0.93494458	1.3169158	0.23944942	-1.0199414	1.3643372	0.06262478	-0.97428547	1.0074221	-0.17456221	-1.0231212	1.0123081	0.30888256	-0.78491054	0.84772309	-0.16266747	-0.87935349	0.81849213	0.34845101
76	0.3	-1.1379435	0.075230132	-0.065204274	-0.80733964	0.035834927	0.13016755	-1.1734888	0.19866181	-0.083850492	-0.94608024	0.060526297	0.14540027	-1.1550247	0.20434003	-0.0029579052	-0.92094013	0.080079369	0.059788819	-1.2342433	0.2394247	-0.033696466	-0.99622018	0.039323729	0.082869988	-0.86553192	0.41193921	-0.10815463	-0.8558391	0.44001261	0.17826066	-0.85817262	0.39895581	0.013690127	-0.89046648	0.43072258	0.053702697	-0.96963505	0.79553582	-0.10569158	-0.95080065	0.80477598	0.2371695	-0.89431986	0.84444387	-0.069506282	-0.8666923	0.85711136	0.17655078	-1.0625406	0.92567375	0.070892492	-0.94745573	1.3334833	-0.12179823	-0.92889106	1.3190122	0.23946529	-1.014237	1.3659655	0.062907065	-0.97074639	1.0096143	-0.17369595	-1.0158515	1.0140329	0.30994907	-0.78336892	0.84754888	-0.16372092	-0.86813023	0.82220845	0.34843744
